<?xml version="1.0" encoding="UTF-8"?>
<svg id="Layer_2" data-name="Layer 2" xmlns="http://www.w3.org/2000/svg" viewBox="0 0 639.47 718.27">
  <defs>
    <style>
      .cls-1 {
        font-family: Narkissim-Regular, Narkissim;
        font-size: 600.1px;
      }

      .cls-1, .cls-2 {
        fill: #ff0;
      }
    </style>
  </defs>
  <g id="Layer_1-2" data-name="Layer 1">
    <path class="cls-2" d="M319.74,50c36.44,0,71.76,7.12,104.98,21.18,32.11,13.58,60.97,33.04,85.75,57.83,24.79,24.79,44.24,53.64,57.83,85.75,14.05,33.22,21.18,68.54,21.18,104.98s-7.12,71.76-21.18,104.98c-13.58,32.11-33.04,60.97-57.83,85.75-24.79,24.79-53.64,44.24-85.75,57.83-33.22,14.05-68.54,21.18-104.98,21.18s-71.76-7.12-104.98-21.18c-32.11-13.58-60.97-33.04-85.75-57.83-24.79-24.79-44.24-53.64-57.83-85.75-14.05-33.22-21.18-68.54-21.18-104.98s7.12-71.76,21.18-104.98c13.58-32.11,33.04-60.97,57.83-85.75,24.79-24.79,53.64-44.24,85.75-57.83,33.22-14.05,68.54-21.18,104.98-21.18M319.74,0C143.15,0,0,143.15,0,319.74s143.15,319.74,319.74,319.74,319.74-143.15,319.74-319.74S496.32,0,319.74,0h0Z"/>
    <text class="cls-1" transform="translate(227.01 517.23) scale(1.19 1)"><tspan x="0" y="0">i</tspan></text>
  </g>
</svg>